PathFileType	4	(X/Y/Z)	C:\Data Capture\Research\archery\Archery pilot8.trc
DataRate	CameraRate	NumFrames	NumMarkers	Units	OrigDataRate	OrigDataStartFrame	OrigNumFrames
100.00	100.00	       97	3	mm	100.00	667	       800
Frame#	Time	Marker 1			Marker 2			Marker 3			
		X1	Y1	Z1	X2	Y2	Z2	X3	Y3	Z3	

667	6.660	61.41444	452.22638	1316.18091	147.09236	448.29562	1264.72974	79.02385	459.31177	1175.73718	
668	6.670	61.52252	452.28830	1316.11682	147.26038	448.39380	1264.62000	79.05284	459.37579	1175.66687	
669	6.680	61.65814	452.34393	1316.05835	147.42596	448.50729	1264.51001	79.07005	459.45483	1175.59009	
670	6.690	61.81473	452.39545	1316.00146	147.57794	448.62738	1264.40088	79.08732	459.53885	1175.50342	
671	6.700	61.98090	452.44437	1315.94189	147.70850	448.74307	1264.29199	79.11556	459.61563	1175.40503	
672	6.710	62.14226	452.49066	1315.87598	147.81670	448.84628	1264.18213	79.15951	459.67450	1175.29443	
673	6.720	62.28590	452.53409	1315.79956	147.90727	448.93475	1264.06970	79.21528	459.71097	1175.17151	
674	6.730	62.40421	452.57584	1315.70862	147.98630	449.01077	1263.95435	79.27181	459.72885	1175.03589	
675	6.740	62.49514	452.61948	1315.60046	148.05797	449.07773	1263.83679	79.31556	459.73764	1174.88696	
676	6.750	62.56067	452.66977	1315.47412	148.12335	449.13849	1263.71545	79.33654	459.74777	1174.72583	
677	6.760	62.60579	452.73007	1315.33044	148.18134	449.19681	1263.58386	79.33186	459.76697	1174.55542	
678	6.770	62.63806	452.80121	1315.17139	148.23032	449.25870	1263.43225	79.30497	459.79831	1174.38000	
679	6.780	62.66655	452.88205	1315.00049	148.26944	449.33124	1263.25159	79.26219	459.84125	1174.20276	
680	6.790	62.69883	452.96982	1314.82227	148.29921	449.41953	1263.03894	79.20963	459.89420	1174.02429	
681	6.800	62.73803	453.06039	1314.64148	148.32222	449.52283	1262.80017	79.15326	459.95587	1173.84509	
682	6.810	62.78247	453.14929	1314.46167	148.34259	449.63278	1262.54797	79.10070	460.02481	1173.66748	
683	6.820	62.82769	453.23102	1314.28442	148.36375	449.73526	1262.29761	79.06001	460.09756	1173.49597	
684	6.830	62.86889	453.29794	1314.10962	148.38747	449.81458	1262.06274	79.03640	460.16730	1173.33594	
685	6.840	62.90356	453.34106	1313.93579	148.41386	449.85983	1261.85437	79.03099	460.22461	1173.19128	
686	6.850	62.93228	453.35342	1313.76074	148.44119	449.86981	1261.67822	79.04227	460.26096	1173.06335	
687	6.860	62.95669	453.33350	1313.58423	148.46552	449.85162	1261.53320	79.06805	460.27283	1172.95068	
688	6.870	62.97722	453.28601	1313.40845	148.48177	449.81451	1261.41040	79.10637	460.26337	1172.84998	
689	6.880	62.99333	453.21982	1313.23596	148.48553	449.76483	1261.29700	79.15439	460.24127	1172.75623	
690	6.890	63.00519	453.14468	1313.06946	148.47626	449.70502	1261.18103	79.20682	460.21817	1172.66345	
691	6.900	63.01432	453.06979	1312.91235	148.46046	449.63519	1261.05530	79.25601	460.20486	1172.56506	
692	6.910	63.02302	453.00302	1312.76746	148.45117	449.55548	1260.91748	79.29395	460.20618	1172.45667	
693	6.920	63.03441	452.95013	1312.63635	148.46187	449.46829	1260.76990	79.31509	460.21802	1172.33691	
694	6.930	63.05219	452.91446	1312.51880	148.49791	449.38000	1260.61719	79.31922	460.22861	1172.20618	
695	6.940	63.07828	452.89661	1312.41333	148.55283	449.29852	1260.46643	79.31197	460.22354	1172.06409	
696	6.950	63.11095	452.89474	1312.31885	148.61311	449.22891	1260.32678	79.30206	460.19250	1171.90991	
697	6.960	63.14551	452.90582	1312.23425	148.66667	449.17236	1260.20789	79.29820	460.13281	1171.74438	
698	6.970	63.17635	452.92706	1312.15784	148.70729	449.12814	1260.11584	79.30633	460.04919	1171.57312	
699	6.980	63.19877	452.95657	1312.08765	148.73360	449.09518	1260.05042	79.32687	459.95197	1171.40710	
700	6.990	63.21071	452.99255	1312.02258	148.74599	449.07416	1260.00427	79.35410	459.85452	1171.26001	
701	7.000	63.21392	453.03214	1311.96179	148.74583	449.06848	1259.96570	79.37842	459.77066	1171.14111	
702	7.010	63.21304	453.07074	1311.90393	148.73592	449.08218	1259.92151	79.38995	459.71173	1171.05310	
703	7.020	63.21329	453.10321	1311.84753	148.71994	449.11560	1259.86194	79.38202	459.68460	1170.99365	
704	7.030	63.21872	453.12656	1311.79321	148.70171	449.16293	1259.78406	79.35320	459.69095	1170.95825	
705	7.040	63.23157	453.14035	1311.74500	148.68500	449.21344	1259.69263	79.30820	459.72675	1170.94177	
706	7.050	63.25202	453.14474	1311.70947	148.67355	449.25513	1259.60022	79.25846	459.78198	1170.93909	
707	7.060	63.27822	453.13953	1311.69250	148.67084	449.27728	1259.52405	79.21992	459.84082	1170.94617	
708	7.070	63.30709	453.12503	1311.69641	148.67998	449.27271	1259.48083	79.20730	459.88535	1170.96069	
709	7.080	63.33459	453.10327	1311.72058	148.70285	449.23886	1259.48218	79.22878	459.90164	1170.98193	
710	7.090	63.35564	453.07751	1311.76221	148.73883	449.17834	1259.53198	79.28401	459.88547	1171.01086	
711	7.100	63.36586	453.05072	1311.81726	148.78362	449.09927	1259.62415	79.36454	459.84415	1171.05115	
712	7.110	63.36373	453.02475	1311.88184	148.82954	449.01422	1259.74500	79.45556	459.79297	1171.10706	
713	7.120	63.34973	453.00079	1311.95190	148.86847	448.93686	1259.87732	79.53933	459.74796	1171.18201	
714	7.130	63.32457	452.97955	1312.02405	148.89514	448.87711	1260.00708	79.60000	459.71951	1171.27551	
715	7.140	63.28897	452.96048	1312.09668	148.90791	448.83856	1260.12512	79.62836	459.71066	1171.38257	
716	7.150	63.24446	452.94159	1312.16931	148.90781	448.81973	1260.22766	79.62417	459.71802	1171.49646	
717	7.160	63.19403	452.92020	1312.24231	148.89763	448.81662	1260.31580	79.59460	459.73325	1171.60974	
718	7.170	63.14178	452.89404	1312.31543	148.88120	448.82297	1260.39355	79.55026	459.74426	1171.71643	
719	7.180	63.09174	452.86246	1312.38757	148.86252	448.83020	1260.46643	79.50140	459.73776	1171.81250	
720	7.190	63.04732	452.82666	1312.45679	148.84486	448.82895	1260.53992	79.45537	459.70273	1171.89648	
721	7.200	63.01124	452.78955	1312.52173	148.83041	448.81235	1260.61816	79.41653	459.63449	1171.97107	
722	7.210	62.98511	452.75375	1312.58350	148.82039	448.77847	1260.70264	79.38747	459.53613	1172.04150	
723	7.220	62.96965	452.71854	1312.64563	148.81548	448.73141	1260.79065	79.36969	459.41876	1172.11426	
724	7.230	62.96560	452.67844	1312.71204	148.81625	448.67978	1260.87793	79.36342	459.29898	1172.19421	
725	7.240	62.97331	452.62637	1312.78540	148.82368	448.63226	1260.96191	79.36713	459.19342	1172.28357	
726	7.250	62.99257	452.55731	1312.86597	148.83908	448.59250	1261.04260	79.37743	459.11340	1172.38196	
727	7.260	63.02332	452.46997	1312.95081	148.86308	448.55847	1261.12256	79.39021	459.06277	1172.48730	
728	7.270	63.06563	452.36813	1313.03564	148.89359	448.52530	1261.20410	79.40265	459.03894	1172.59570	
729	7.280	63.11885	452.25922	1313.11743	148.92508	448.48697	1261.28784	79.41409	459.03500	1172.70154	
730	7.290	63.18103	452.15112	1313.19592	148.95175	448.43744	1261.37354	79.42473	459.04214	1172.79858	
731	7.300	63.24823	452.05026	1313.27295	148.97093	448.37268	1261.46069	79.43392	459.05130	1172.88245	
732	7.310	63.31414	451.96201	1313.35022	148.98354	448.29321	1261.54785	79.44036	459.05511	1172.95239	
733	7.320	63.37232	451.88950	1313.42761	148.99211	448.20572	1261.63281	79.44347	459.05011	1173.01013	
734	7.330	63.41906	451.83176	1313.50476	148.99834	448.12204	1261.71265	79.44386	459.03827	1173.06030	
735	7.340	63.45385	451.78397	1313.58118	149.00128	448.05450	1261.78455	79.44229	459.02618	1173.10889	
736	7.350	63.47736	451.74020	1313.65625	148.99797	448.00851	1261.84851	79.43925	459.02188	1173.16089	
737	7.360	63.48938	451.69550	1313.72839	148.98682	447.97729	1261.90747	79.43544	459.03088	1173.21899	
738	7.370	63.48781	451.64612	1313.79651	148.97028	447.94376	1261.96619	79.43209	459.05194	1173.28406	
739	7.380	63.46972	451.58926	1313.85986	148.95390	447.88684	1262.02905	79.43082	459.07428	1173.35474	
740	7.390	63.43367	451.52365	1313.91833	148.94157	447.78949	1262.09839	79.43307	459.07993	1173.42822	
741	7.400	63.38158	451.45038	1313.97156	148.93018	447.64569	1262.17310	79.43844	459.04977	1173.49951	
742	7.410	63.31865	451.37247	1314.02002	148.91037	447.46329	1262.25037	79.44346	458.97037	1173.56360	
743	7.420	63.25197	451.29443	1314.06519	148.87398	447.26108	1262.32800	79.44307	458.83969	1173.61597	
744	7.430	63.18942	451.22183	1314.10974	148.81956	447.06171	1262.40393	79.43313	458.67026	1173.65308	
745	7.440	63.13828	451.15897	1314.15747	148.75240	446.88577	1262.47583	79.41270	458.48615	1173.67542	
746	7.450	63.10376	451.10666	1314.21130	148.68240	446.74878	1262.54041	79.38540	458.31473	1173.68896	
747	7.460	63.08827	451.06235	1314.27197	148.62112	446.65948	1262.59558	79.35845	458.17914	1173.70325	
748	7.470	63.09153	451.02240	1314.33752	148.57706	446.61844	1262.64050	79.33888	458.09326	1173.72595	
749	7.480	63.11110	450.98364	1314.40344	148.55278	446.61765	1262.67590	79.32934	458.05865	1173.75952	
750	7.490	63.14377	450.94449	1314.46326	148.54529	446.64212	1262.70129	79.32733	458.06467	1173.79956	
751	7.500	63.18724	450.90414	1314.50977	148.54762	446.67294	1262.71472	79.32785	458.09210	1173.83704	
752	7.510	63.23989	450.86166	1314.53833	148.55190	446.69202	1262.71375	79.32611	458.11969	1173.86133	
753	7.520	63.29857	450.81628	1314.54846	148.55168	446.68692	1262.69910	79.31951	458.13055	1173.86487	
754	7.530	63.35645	450.76917	1314.54504	148.54280	446.65408	1262.67603	79.30853	458.11630	1173.84619	
755	7.540	63.40377	450.72311	1314.53516	148.52415	446.59860	1262.65076	79.29613	458.07700	1173.80957	
756	7.550	63.43147	450.68066	1314.52637	148.49829	446.53094	1262.62756	79.28667	458.02002	1173.76489	
757	7.560	63.43383	450.64258	1314.52405	148.46992	446.46255	1262.60803	79.28503	457.95682	1173.72522	
758	7.570	63.40891	450.60797	1314.53198	148.44324	446.40332	1262.59314	79.29452	457.89780	1173.70239	
759	7.580	63.35868	450.57605	1314.55151	148.42044	446.36075	1262.58484	79.31450	457.84897	1173.70361	
760	7.590	63.28936	450.54752	1314.58179	148.40152	446.33948	1262.58569	79.33963	457.81271	1173.72986	
761	7.600	63.21006	450.52466	1314.62036	148.38480	446.34116	1262.59827	79.36250	457.78787	1173.77686	
762	7.610	63.12912	450.50946	1314.66357	148.36885	446.36423	1262.62585	79.37774	457.76944	1173.83862	
763	7.620	63.05024	450.50098	1314.70801	148.35393	446.40332	1262.67151	79.38354	457.74973	1173.90955	
